<svg width="74" height="74" viewBox="0 0 74 74" fill="none" xmlns="http://www.w3.org/2000/svg">
<path d="M46.7866 22.0299L44.409 22.8024L46.7866 22.0299L43.1819 10.9357C41.2361 4.94714 32.7639 4.94714 30.8181 10.9357L27.2134 22.0299C27.0126 22.6479 26.4367 23.0664 25.7868 23.0664H14.1216C7.82495 23.0664 5.20689 31.1239 10.301 34.825L19.7384 41.6816C20.2641 42.0636 20.4841 42.7406 20.2833 43.3586L16.6785 54.4529C14.7327 60.4414 21.5869 65.4212 26.681 61.7201L36.1183 54.8635C36.6441 54.4815 37.3559 54.4815 37.8817 54.8635L47.319 61.7201C52.4131 65.4212 59.2673 60.4414 57.3215 54.4529L53.7167 43.3586C53.5159 42.7406 53.7359 42.0636 54.2616 41.6816L63.699 34.825C68.7931 31.1239 66.1751 23.0664 59.8784 23.0664H48.2132C47.5633 23.0664 46.9874 22.6479 46.7866 22.0299Z" fill="#98C0F6" fill-opacity="0.4" stroke="#98C0F6" stroke-width="5"/>
</svg>
